<svg width="90" height="32" viewBox="0 0 90 32" xmlns="http://www.w3.org/2000/svg"><title>logo</title><g id="UI" fill="none" fill-rule="evenodd"><g id="homepage---desktop" transform="translate(-50 -58)" fill="#FFF"><g id="header"><g id="logo" transform="translate(50 58)"><path d="M25.865 31.097l.061.132h-.007l-.08-.19-.004-.007-.128-.277c-.645-1.318-3.854-7.14-10.294-7.14-7.074 0-10.249 7.02-10.41 7.386l-.097.227H0l.842-1.971.005-.011L13.332.017h4.161l7.634 17.872h-4.906L15.413 6.632 9.553 20.35a14.43 14.43 0 0 1 5.86-1.21c.846 0 1.647.073 2.413.197 8.399 1.365 11.995 9.543 12.157 9.92v-.001l.916 1.973h-4.973l-.06-.13z" id="Combined-Shape"/><path d="M42.977 12.768c-1.132.877-2.006 2.047-2.621 3.51v-4.35h-4.502V31.23h4.502v-7.348c0-1.268.16-2.382.48-3.345.32-.963.775-1.761 1.366-2.395a5.636 5.636 0 0 1 2.103-1.425c.812-.317 1.71-.475 2.694-.475h.26v-4.68c-1.723-.073-3.15.329-4.282 1.206" id="Fill-6"/><path d="M63.149 27.154c-.801.451-1.73.676-2.787.676-.862 0-1.65-.165-2.362-.494a5.757 5.757 0 0 1-1.846-1.334 5.926 5.926 0 0 1-1.199-1.975 6.777 6.777 0 0 1-.425-2.412v-.073c0-.829.14-1.62.425-2.376a6.03 6.03 0 0 1 1.162-1.956 5.574 5.574 0 0 1 1.771-1.316 5.146 5.146 0 0 1 2.252-.494c1.132 0 2.086.226 2.86.677.775.45 1.508 1.03 2.197 1.736l2.768-2.96c-.911-1-1.975-1.805-3.193-2.414-1.218-.609-2.749-.914-4.595-.914-1.452 0-2.8.268-4.043.804a10.143 10.143 0 0 0-3.223 2.176 9.89 9.89 0 0 0-2.122 3.217 10.105 10.105 0 0 0-.762 3.893v.073a9.96 9.96 0 0 0 .762 3.875 9.718 9.718 0 0 0 2.122 3.181 10.074 10.074 0 0 0 3.205 2.138c1.23.525 2.572.787 4.024.787 1.895 0 3.457-.335 4.687-1.005a12.238 12.238 0 0 0 3.285-2.615l-2.694-2.632a10.664 10.664 0 0 1-2.27 1.737" id="Fill-8"/><path d="M87.865 13.535c-1.202-1.339-2.908-2.01-5.116-2.01-.761 0-1.442.092-2.043.277a6.843 6.843 0 0 0-2.981 1.844 10.8 10.8 0 0 0-1.049 1.31V4.542h-4.503V31.23h4.503V20.36c0-1.505.403-2.68 1.207-3.518.805-.84 1.854-1.26 3.147-1.26 1.318 0 2.336.409 3.055 1.223.72.814 1.08 1.976 1.08 3.483V31.23h4.504V18.946c0-2.265-.602-4.07-1.804-5.41" id="Fill-10"/></g></g></g></g></svg>