<?xml version="1.0" encoding="UTF-8" standalone="no"?>
<!-- Generator: Adobe Illustrator 16.0.4, SVG Export Plug-In . SVG Version: 6.00 Build 0)  -->

<svg
   xmlns:dc="http://purl.org/dc/elements/1.1/"
   xmlns:cc="http://creativecommons.org/ns#"
   xmlns:rdf="http://www.w3.org/1999/02/22-rdf-syntax-ns#"
   xmlns:svg="http://www.w3.org/2000/svg"
   xmlns="http://www.w3.org/2000/svg"
   xmlns:sodipodi="http://sodipodi.sourceforge.net/DTD/sodipodi-0.dtd"
   xmlns:inkscape="http://www.inkscape.org/namespaces/inkscape"
   version="1.1"
   id="Layer_1"
   x="0px"
   y="0px"
   width="338.555px"
   height="120.654px"
   viewBox="0 0 338.555 120.654"
   enable-background="new 0 0 338.555 120.654"
   xml:space="preserve"
   inkscape:version="0.91 r13725"
   sodipodi:docname="arch_logotype_blue.svg"><metadata
     id="metadata15"><rdf:RDF><cc:Work
         rdf:about=""><dc:format>image/svg+xml</dc:format><dc:type
           rdf:resource="http://purl.org/dc/dcmitype/StillImage" /><dc:title></dc:title></cc:Work></rdf:RDF></metadata><defs
     id="defs13" /><sodipodi:namedview
     pagecolor="#ffffff"
     bordercolor="#666666"
     borderopacity="1"
     objecttolerance="10"
     gridtolerance="10"
     guidetolerance="10"
     inkscape:pageopacity="0"
     inkscape:pageshadow="2"
     inkscape:window-width="1059"
     inkscape:window-height="727"
     id="namedview11"
     showgrid="false"
     inkscape:zoom="0.91565626"
     inkscape:cx="188.38947"
     inkscape:cy="60.327"
     inkscape:window-x="-1"
     inkscape:window-y="93"
     inkscape:window-maximized="0"
     inkscape:current-layer="Layer_1" /><path
     fill="#171717"
     d="M113.206,111.453l-0.002,0.006c-0.61-1.442-14.189-32.613-45.898-37.815  c-2.89-0.475-5.917-0.752-9.114-0.752c-8.426,0-15.774,1.798-22.122,4.613l22.122-52.289l18.155,42.911h18.524L66.048,0H50.336  L3.199,111.416c-0.005,0.012-0.015,0.035-0.018,0.043v0.001L0,118.976h18.524l0.368-0.869c0.606-1.394,12.595-28.156,39.3-28.156  c24.315,0,36.433,22.193,38.866,27.218l0.485,1.058l0.345,0.75h18.772L113.206,111.453z"
     id="path3"
     style="fill:#026fb5;fill-opacity:1" /><path
     fill="#171717"
     d="M162.264,48.604c-4.275,3.346-7.573,7.805-9.895,13.379V45.4h-17v73.581h17V90.968  c0-4.828,0.604-9.078,1.812-12.75c1.207-3.669,2.925-6.711,5.157-9.127c2.228-2.415,4.877-4.228,7.941-5.436  c3.068-1.207,6.457-1.812,10.173-1.812h0.979V44.005C171.926,43.727,166.537,45.261,162.264,48.604"
     id="path5"
     style="fill:#026fb5;fill-opacity:1" /><path
     fill="#171717"
     d="M238.425,103.444c-3.022,1.718-6.53,2.577-10.522,2.577c-3.255,0-6.226-0.627-8.92-1.882  c-2.695-1.254-5.015-2.949-6.969-5.087c-1.95-2.136-3.462-4.645-4.527-7.525c-1.068-2.878-1.602-5.946-1.602-9.197v-0.277  c0-3.159,0.533-6.179,1.602-9.06c1.065-2.878,2.529-5.367,4.389-7.457c1.857-2.089,4.089-3.762,6.691-5.015  c2.601-1.256,5.433-1.883,8.5-1.883c4.273,0,7.873,0.862,10.8,2.577c2.926,1.721,5.689,3.927,8.294,6.621l10.449-11.288  c-3.438-3.808-7.457-6.876-12.055-9.198c-4.599-2.322-10.38-3.484-17.349-3.484c-5.484,0-10.57,1.023-15.265,3.064  c-4.696,2.048-8.75,4.809-12.17,8.294c-3.42,3.484-6.087,7.572-8.01,12.262c-1.919,4.692-2.881,9.641-2.881,14.843v0.277  c0,5.206,0.962,10.128,2.881,14.772c1.923,4.646,4.59,8.689,8.01,12.127c3.42,3.436,7.451,6.154,12.101,8.15  c4.646,1.996,9.711,2.997,15.194,2.997c7.153,0,13.052-1.279,17.698-3.833c4.644-2.555,8.78-5.875,12.403-9.964l-10.173-10.033  C244.299,99.52,241.441,101.726,238.425,103.444"
     id="path7"
     style="fill:#026fb5;fill-opacity:1" /><path
     fill="#171717"
     d="M331.744,51.53c-4.539-5.106-10.978-7.663-19.315-7.663c-2.873,0-5.444,0.351-7.712,1.057  c-2.27,0.703-4.356,1.661-6.256,2.881c-1.899,1.219-3.566,2.602-5.002,4.148c-1.437,1.548-2.755,3.209-3.96,4.992V17.249h-17  v101.732h17V77.546c0-5.741,1.52-10.215,4.56-13.413c3.039-3.198,7-4.798,11.88-4.798c4.976,0,8.819,1.554,11.536,4.659  c2.72,3.104,4.076,7.53,4.076,13.277v41.71h17.004V72.156C338.555,63.517,336.284,56.642,331.744,51.53"
     id="path9"
     style="fill:#026fb5;fill-opacity:1" /></svg>